<svg  viewBox="0 0 16 4" fill="none"
    xmlns="http://www.w3.org/2000/svg">
    <path d="M9.0625 2C9.0625 2.5868 8.5868 3.0625 8 3.0625C7.4132 3.0625 6.9375 2.5868 6.9375 2C6.9375 1.4132 7.4132 0.9375 8 0.9375C8.5868 0.9375 9.0625 1.4132 9.0625 2Z" fill="currentColor" stroke="currentColor" stroke-width="0.125"/>
    <path d="M15.0625 2C15.0625 2.5868 14.5868 3.0625 14 3.0625C13.4132 3.0625 12.9375 2.5868 12.9375 2C12.9375 1.4132 13.4132 0.9375 14 0.9375C14.5868 0.9375 15.0625 1.4132 15.0625 2Z" fill="currentColor" stroke="currentColor" stroke-width="0.125"/>
    <path d="M2 3.125C2.62132 3.125 3.125 2.62132 3.125 2C3.125 1.37868 2.62132 0.875 2 0.875C1.37868 0.875 0.875 1.37868 0.875 2C0.875 2.62132 1.37868 3.125 2 3.125Z" fill="currentColor"/>
</svg>
    