<?xml version="1.0" encoding="UTF-8"?>
<!DOCTYPE svg PUBLIC "-//W3C//DTD SVG 1.1//EN" "http://www.w3.org/Graphics/SVG/1.1/DTD/svg11.dtd">
<svg xmlns="http://www.w3.org/2000/svg" version="1.1" width="512px" height="512px" style="shape-rendering:geometricPrecision; text-rendering:geometricPrecision; image-rendering:optimizeQuality; fill-rule:evenodd; clip-rule:evenodd" xmlns:xlink="http://www.w3.org/1999/xlink">
<g><path style="opacity:0.97" fill="#000000" d="M 208.5,63.5 C 282.501,63.3333 356.501,63.5 430.5,64C 438.667,66.8333 444.167,72.3333 447,80.5C 447.667,122.5 447.667,164.5 447,206.5C 444.167,214.667 438.667,220.167 430.5,223C 370.833,223.333 311.167,223.667 251.5,224C 246.5,229 241.5,234 236.5,239C 276.167,239.333 315.833,239.667 355.5,240C 386.099,246.599 405.766,264.932 414.5,295C 443.704,292.903 462.537,305.736 471,333.5C 474.421,363.18 461.921,382.346 433.5,391C 427.167,391.333 420.833,391.667 414.5,392C 406.5,420 388.5,438 360.5,446C 292.203,447.65 223.87,447.983 155.5,447C 124.901,440.401 105.234,422.068 96.5,392C 77.3465,394.065 61.5132,387.898 49,373.5C 38.7152,357.922 36.7152,341.256 43,323.5C 49.1404,311.358 58.4737,302.692 71,297.5C 71.5,267.168 71.6666,236.835 71.5,206.5C 58.9177,203.752 51.0844,196.085 48,183.5C 44.8545,166.632 50.6878,154.132 65.5,146C 82.2257,139.914 96.059,143.748 107,157.5C 115.625,175.3 112.458,190.466 97.5,203C 94.3949,204.868 91.0615,206.035 87.5,206.5C 87.5,236.167 87.5,265.833 87.5,295.5C 90.7766,295.784 93.9433,295.451 97,294.5C 105.569,264.597 125.069,246.431 155.5,240C 167.495,239.5 179.495,239.333 191.5,239.5C 191.333,186.499 191.5,133.499 192,80.5C 195.019,72.3156 200.519,66.649 208.5,63.5 Z M 215.5,79.5 C 284.834,79.3333 354.167,79.5 423.5,80C 428,80.5 430.5,83 431,87.5C 431.667,124.833 431.667,162.167 431,199.5C 430.5,204 428,206.5 423.5,207C 363.5,207.333 303.5,207.667 243.5,208C 231.362,219.137 219.529,230.637 208,242.5C 207.333,190.833 207.333,139.167 208,87.5C 208.68,82.9895 211.18,80.3228 215.5,79.5 Z M 74.5,160.5 C 91.7649,160.257 97.5982,168.257 92,184.5C 85.7488,191.011 78.5821,192.177 70.5,188C 63.9893,181.749 62.8227,174.582 67,166.5C 69.1141,163.879 71.6141,161.879 74.5,160.5 Z M 167.5,255.5 C 175.5,255.5 183.5,255.5 191.5,255.5C 191.334,259.514 191.501,263.514 192,267.5C 193.529,270.516 196.029,271.849 199.5,271.5C 201.634,271.485 203.634,270.985 205.5,270C 210.167,265.333 214.833,260.667 219.5,256C 264.188,255.054 308.855,255.387 353.5,257C 374.197,261.594 388.364,273.76 396,293.5C 397.787,299.366 398.787,305.366 399,311.5C 399.895,336.191 399.562,360.858 398,385.5C 392.5,409.667 377.667,424.5 353.5,430C 320.855,431.129 288.188,431.629 255.5,431.5C 222.812,431.629 190.145,431.129 157.5,430C 133.333,424.5 118.5,409.667 113,385.5C 111.438,360.858 111.105,336.191 112,311.5C 115.344,277.657 133.844,258.99 167.5,255.5 Z M 175.5,295.5 C 231.195,295.029 286.862,295.529 342.5,297C 350.428,299.927 355.594,305.427 358,313.5C 359.582,331.461 359.916,349.461 359,367.5C 357.167,381.333 349.333,389.167 335.5,391C 282.167,391.667 228.833,391.667 175.5,391C 164.178,390.004 156.678,384.171 153,373.5C 151.418,355.539 151.084,337.539 152,319.5C 153.695,305.307 161.528,297.307 175.5,295.5 Z M 87.5,311.5 C 90.1667,311.5 92.8333,311.5 95.5,311.5C 95.5,332.833 95.5,354.167 95.5,375.5C 68.5957,376.097 55.7624,363.097 57,336.5C 61.514,321.172 71.6807,312.839 87.5,311.5 Z M 415.5,311.5 C 444.7,311.522 457.2,325.855 453,354.5C 445.396,369.893 432.896,376.893 415.5,375.5C 415.5,354.167 415.5,332.833 415.5,311.5 Z"/></g>
<g><path style="opacity:0.981" fill="#000000" d="M 235.5,103.5 C 238.187,103.336 240.854,103.503 243.5,104C 245.333,104.5 246.5,105.667 247,107.5C 247.667,131.5 247.667,155.5 247,179.5C 245.471,182.516 242.971,183.849 239.5,183.5C 236.029,183.849 233.529,182.516 232,179.5C 231.333,155.5 231.333,131.5 232,107.5C 232.69,105.65 233.856,104.316 235.5,103.5 Z"/></g>
<g><path style="opacity:0.981" fill="#000000" d="M 299.5,103.5 C 302.187,103.336 304.854,103.503 307.5,104C 309.333,104.5 310.5,105.667 311,107.5C 311.667,131.5 311.667,155.5 311,179.5C 309.471,182.516 306.971,183.849 303.5,183.5C 300.029,183.849 297.529,182.516 296,179.5C 295.333,155.5 295.333,131.5 296,107.5C 296.69,105.65 297.856,104.316 299.5,103.5 Z"/></g>
<g><path style="opacity:0.981" fill="#000000" d="M 363.5,103.5 C 366.187,103.336 368.854,103.503 371.5,104C 373.333,104.5 374.5,105.667 375,107.5C 375.667,131.5 375.667,155.5 375,179.5C 373.471,182.516 370.971,183.849 367.5,183.5C 364.029,183.849 361.529,182.516 360,179.5C 359.333,155.5 359.333,131.5 360,107.5C 360.69,105.65 361.856,104.316 363.5,103.5 Z"/></g>
<g><path style="opacity:0.967" fill="#000000" d="M 267.5,119.5 C 270.187,119.336 272.854,119.503 275.5,120C 277.333,120.5 278.5,121.667 279,123.5C 279.667,136.833 279.667,150.167 279,163.5C 278.5,165.333 277.333,166.5 275.5,167C 272.833,167.667 270.167,167.667 267.5,167C 265.667,166.5 264.5,165.333 264,163.5C 263.333,150.167 263.333,136.833 264,123.5C 264.69,121.65 265.856,120.316 267.5,119.5 Z"/></g>
<g><path style="opacity:0.967" fill="#000000" d="M 331.5,119.5 C 334.187,119.336 336.854,119.503 339.5,120C 341.333,120.5 342.5,121.667 343,123.5C 343.667,136.833 343.667,150.167 343,163.5C 342.5,165.333 341.333,166.5 339.5,167C 336.833,167.667 334.167,167.667 331.5,167C 329.667,166.5 328.5,165.333 328,163.5C 327.333,150.167 327.333,136.833 328,123.5C 328.69,121.65 329.856,120.316 331.5,119.5 Z"/></g>
<g><path style="opacity:0.967" fill="#000000" d="M 395.5,119.5 C 398.187,119.336 400.854,119.503 403.5,120C 405.333,120.5 406.5,121.667 407,123.5C 407.667,136.833 407.667,150.167 407,163.5C 406.5,165.333 405.333,166.5 403.5,167C 400.833,167.667 398.167,167.667 395.5,167C 393.667,166.5 392.5,165.333 392,163.5C 391.333,150.167 391.333,136.833 392,123.5C 392.69,121.65 393.856,120.316 395.5,119.5 Z"/></g>
<g><path style="opacity:0.975" fill="#000000" d="M 166.5,279.5 C 225.834,279.333 285.168,279.5 344.5,280C 360.667,284.167 370.833,294.333 375,310.5C 375.667,332.5 375.667,354.5 375,376.5C 370.833,392.667 360.667,402.833 344.5,407C 285.167,407.667 225.833,407.667 166.5,407C 150.333,402.833 140.167,392.667 136,376.5C 135.333,354.5 135.333,332.5 136,310.5C 140.349,294.319 150.516,283.985 166.5,279.5 Z M 175.5,295.5 C 161.528,297.307 153.695,305.307 152,319.5C 151.084,337.539 151.418,355.539 153,373.5C 156.678,384.171 164.178,390.004 175.5,391C 228.833,391.667 282.167,391.667 335.5,391C 349.333,389.167 357.167,381.333 359,367.5C 359.916,349.461 359.582,331.461 358,313.5C 355.594,305.427 350.428,299.927 342.5,297C 286.862,295.529 231.195,295.029 175.5,295.5 Z"/></g>
<g><path style="opacity:0.906" fill="#000000" d="M 203.5,311.5 C 206.978,311.184 210.312,311.684 213.5,313C 224.333,323.833 235.167,334.667 246,345.5C 249.833,357.667 245.667,361.833 233.5,358C 224.986,349.319 216.319,340.819 207.5,332.5C 198.681,340.819 190.014,349.319 181.5,358C 169.333,361.833 165.167,357.667 169,345.5C 180.395,333.937 191.895,322.604 203.5,311.5 Z"/></g>
<g><path style="opacity:0.906" fill="#000000" d="M 299.5,311.5 C 302.978,311.184 306.312,311.684 309.5,313C 320.333,323.833 331.167,334.667 342,345.5C 345.833,357.667 341.667,361.833 329.5,358C 320.986,349.319 312.319,340.819 303.5,332.5C 294.681,340.819 286.014,349.319 277.5,358C 265.333,361.833 261.167,357.667 265,345.5C 276.395,333.937 287.895,322.604 299.5,311.5 Z"/></g>
</svg>
